<mxfile host="app.diagrams.net" modified="2023-05-09T06:50:37.290Z" agent="Mozilla/5.0 (Windows NT 10.0; Win64; x64) AppleWebKit/537.36 (KHTML, like Gecko) Chrome/113.0.0.0 Safari/537.36" version="21.2.9" etag="EFuIuqcPnfl-UksShR8t" type="github">
  <diagram name="Страница 1" id="bMrQ0MzoH_sZkKh2n9hR">
    <mxGraphModel>
      <root>
        <mxCell id="0" />
        <mxCell id="1" parent="0" />
      </root>
    </mxGraphModel>
  </diagram>
</mxfile>
